<svg width="29" height="30" viewBox="0 0 29 30" fill="none" xmlns="http://www.w3.org/2000/svg">
<rect y="0.207397" width="29" height="29" rx="14.5" fill="#C27ED2"/>
<path d="M19.1948 12.2074C20.5755 12.2074 21.6948 11.0881 21.6948 9.7074C21.6948 8.32669 20.5755 7.2074 19.1948 7.2074C17.8141 7.2074 16.6948 8.32669 16.6948 9.7074C16.6948 11.0881 17.8141 12.2074 19.1948 12.2074Z" stroke="#070707" stroke-width="1.5" stroke-miterlimit="10" stroke-linecap="round" stroke-linejoin="round"/>
<path d="M9.50001 12.2074C10.8807 12.2074 12 11.0881 12 9.7074C12 8.32669 10.8807 7.2074 9.50001 7.2074C8.11929 7.2074 7 8.32669 7 9.7074C7 11.0881 8.11929 12.2074 9.50001 12.2074Z" stroke="#070707" stroke-width="1.5" stroke-miterlimit="10" stroke-linecap="round" stroke-linejoin="round"/>
<path d="M19.1948 22.2074C20.5755 22.2074 21.6948 21.0881 21.6948 19.7074C21.6948 18.3267 20.5755 17.2074 19.1948 17.2074C17.8141 17.2074 16.6948 18.3267 16.6948 19.7074C16.6948 21.0881 17.8141 22.2074 19.1948 22.2074Z" stroke="#070707" stroke-width="1.5" stroke-miterlimit="10" stroke-linecap="round" stroke-linejoin="round"/>
<path d="M9.50001 22.2074C10.8807 22.2074 12 21.0881 12 19.7074C12 18.3267 10.8807 17.2074 9.50001 17.2074C8.11929 17.2074 7 18.3267 7 19.7074C7 21.0881 8.11929 22.2074 9.50001 22.2074Z" stroke="#070707" stroke-width="1.5" stroke-miterlimit="10" stroke-linecap="round" stroke-linejoin="round"/>
</svg>
