<svg width="24" height="25" viewBox="0 0 24 25" fill="none" xmlns="http://www.w3.org/2000/svg">
<path d="M17 2.2074H7C4.24 2.2074 2 4.4374 2 7.1874V13.1674V14.1674C2 16.9174 4.24 19.1474 7 19.1474H8.5C8.77 19.1474 9.13 19.3274 9.3 19.5474L10.8 21.5374C11.46 22.4174 12.54 22.4174 13.2 21.5374L14.7 19.5474C14.89 19.2974 15.19 19.1474 15.5 19.1474H17C19.76 19.1474 22 16.9174 22 14.1674V7.1874C22 4.4374 19.76 2.2074 17 2.2074ZM8 12.2074C7.44 12.2074 7 11.7574 7 11.2074C7 10.6574 7.45 10.2074 8 10.2074C8.55 10.2074 9 10.6574 9 11.2074C9 11.7574 8.56 12.2074 8 12.2074ZM12 12.2074C11.44 12.2074 11 11.7574 11 11.2074C11 10.6574 11.45 10.2074 12 10.2074C12.55 10.2074 13 10.6574 13 11.2074C13 11.7574 12.56 12.2074 12 12.2074ZM16 12.2074C15.44 12.2074 15 11.7574 15 11.2074C15 10.6574 15.45 10.2074 16 10.2074C16.55 10.2074 17 10.6574 17 11.2074C17 11.7574 16.56 12.2074 16 12.2074Z" fill="#A1A1A1"/>
</svg>
