<svg width="24" height="25" viewBox="0 0 24 25" fill="none" xmlns="http://www.w3.org/2000/svg">
<path d="M19.3399 14.9856L18.3399 13.3256C18.1299 12.9556 17.9399 12.2556 17.9399 11.8456V9.31561C17.9399 6.96561 16.5599 4.93561 14.5699 3.98561C14.0499 3.06561 13.0899 2.49561 11.9899 2.49561C10.8999 2.49561 9.91994 3.08561 9.39994 4.01561C7.44994 4.98561 6.09994 6.99561 6.09994 9.31561V11.8456C6.09994 12.2556 5.90994 12.9556 5.69994 13.3156L4.68994 14.9856C4.28994 15.6556 4.19994 16.3956 4.44994 17.0756C4.68994 17.7456 5.25994 18.2656 5.99994 18.5156C7.93994 19.1756 9.97994 19.4956 12.0199 19.4956C14.0599 19.4956 16.0999 19.1756 18.0399 18.5256C18.7399 18.2956 19.2799 17.7656 19.5399 17.0756C19.7999 16.3856 19.7299 15.6256 19.3399 14.9856Z" fill="#D0D0D0"/>
<path d="M14.8297 20.5056C14.4097 21.6656 13.2997 22.4956 11.9997 22.4956C11.2097 22.4956 10.4297 22.1756 9.87969 21.6056C9.55969 21.3056 9.31969 20.9056 9.17969 20.4956C9.30969 20.5156 9.43969 20.5256 9.57969 20.5456C9.80969 20.5756 10.0497 20.6056 10.2897 20.6256C10.8597 20.6756 11.4397 20.7056 12.0197 20.7056C12.5897 20.7056 13.1597 20.6756 13.7197 20.6256C13.9297 20.6056 14.1397 20.5956 14.3397 20.5656C14.4997 20.5456 14.6597 20.5256 14.8297 20.5056Z" fill="#D0D0D0"/>
<circle cx="18" cy="5.49561" r="3" fill="#D8727D"/>
</svg>
